<svg xmlns="http://www.w3.org/2000/svg" width="90" height="90" viewBox="0 0 90 90">
  <defs>
    <style>
      .cls-1 {
        fill: #bdbcb8;
      }

      .cls-2 {
        fill: #575452;
      }

      .cls-3 {
        fill: #8c8a88;
      }

      .cls-4 {
        fill: #8a8886;
      }

      .cls-5 {
        fill: #6c9d41;
      }

      .cls-6 {
        fill: #95bb4a;
      }

      .cls-7 {
        opacity: 0.1;
      }

      .cls-8 {
        fill: #fff;
      }
    </style>
  </defs>
  <g id="Layer_1" data-name="Layer 1">
    <g>
      <g>
        <path class="cls-1" d="M10.25,23.24l8.44,7.26v-10a3.58,3.58,0,0,1,3.08-3.55l-3.5-3C13.12,9.5,5,10.62,5,10.62S5.11,18.81,10.25,23.24Z"/>
        <path class="cls-2" d="M78.55,68.69l.06-.07-8-8.38,0,0,5.22-6c.47-.65-1.33-2.49-2.21-3.24a2.33,2.33,0,0,0-3.08,0c-1.38,1.25-2.82,2.65-4.3,4.18l-.1-.09c-.39.55-.81,1.1-1.25,1.64a52.24,52.24,0,0,1-7.32,7.2l.65.56c-1.29,1.69-2.46,3.33-3.49,4.88a2.33,2.33,0,0,0,.42,3c.88.76,3,2.26,3.54,1.7L63.82,68h0l9.49,6.72.06-.07c.06.24.82,3.11,2,4.18A5.79,5.79,0,0,0,83,70.1C81.75,69,78.8,68.72,78.55,68.69Z"/>
        <path class="cls-3" d="M58.62,74.09c-.58.56-2.66-.94-3.54-1.7a2.33,2.33,0,0,1-.42-3c1-1.55,2.2-3.19,3.49-4.88l8-9.31c1.48-1.53,2.92-2.93,4.3-4.18a2.33,2.33,0,0,1,3.08,0c.88.75,2.68,2.59,2.21,3.24Z"/>
        <path class="cls-1" d="M71.31,20.49v10l8.44-7.26C84.89,18.81,85,10.62,85,10.62S76.88,9.5,71.73,13.93l-3.5,3a3.58,3.58,0,0,1,3.08,3.55Z"/>
        <g>
          <path class="cls-4" d="M18.69,20.49a3.58,3.58,0,0,1,3.08-3.55l-2.1-1.81a6,6,0,0,0-3.37,5.36v8l2.39,2.05Z"/>
          <path class="cls-4" d="M70.33,15.13l-2.1,1.81a3.58,3.58,0,0,1,3.08,3.55v10l2.39-2.05v-8A6,6,0,0,0,70.33,15.13Z"/>
        </g>
        <path class="cls-2" d="M11.45,68.69l-.06-.07,8.05-8.38,0,0-5.22-6c-.47-.65,1.33-2.49,2.21-3.24a2.33,2.33,0,0,1,3.08,0c1.38,1.25,2.82,2.65,4.3,4.18l.1-.09c.39.55.81,1.1,1.25,1.64a52.24,52.24,0,0,0,7.32,7.2l-.65.56c1.29,1.69,2.46,3.33,3.49,4.88a2.33,2.33,0,0,1-.42,3c-.88.76-3,2.26-3.54,1.7L26.18,68h0l-9.49,6.72-.06-.07c-.06.24-.82,3.11-2,4.18A5.79,5.79,0,1,1,7,70.1C8.25,69,11.2,68.72,11.45,68.69Z"/>
        <path class="cls-3" d="M31.38,74.09c.58.56,2.66-.94,3.54-1.7a2.33,2.33,0,0,0,.42-3c-1-1.55-2.2-3.19-3.49-4.88l-8-9.31c-1.48-1.53-2.92-2.93-4.3-4.18a2.33,2.33,0,0,0-3.08,0c-.88.75-2.68,2.59-2.21,3.24Z"/>
        <path class="cls-5" d="M45,71a3.2,3.2,0,0,1-1.77-.51c-14.87-10-23.48-18.32-23.48-31.32V37.36H36.66c1.14,0,2.61-.18,3.18-1a1.82,1.82,0,0,0,0-1.79,10.08,10.08,0,0,0-1.53-2.43,6.08,6.08,0,0,1-1.64-4.46C36.67,24,40.91,22,44.9,22h.41c4,0,8.24,2,8.24,5.67a6.08,6.08,0,0,1-1.64,4.46,10.08,10.08,0,0,0-1.53,2.43,1.84,1.84,0,0,0,0,1.77c.51.8,1.82,1,2.83,1h17v1.77c0,13-8.61,21.32-23.48,31.32A3.2,3.2,0,0,1,45,71Z"/>
      </g>
      <path class="cls-6" d="M67.79,16.81c-8-.18-13.15-2.32-20.26-8.47A3.91,3.91,0,0,0,45,7.42a3.87,3.87,0,0,0-2.53.93c-7.11,6.14-12.22,8.28-20.26,8.46a3.72,3.72,0,0,0-3.61,3.68V39.13c0,13.51,8.8,22.06,24,32.27a4.45,4.45,0,0,0,4.82,0c15.19-10.21,24-18.76,24-32.27V20.49A3.72,3.72,0,0,0,67.79,16.81ZM69.1,39.13c0,12.47-8.35,20.54-23,30.36a2.16,2.16,0,0,1-2.26,0c-14.62-9.82-23-17.89-23-30.36v-.62H36.66c2.07,0,3.46-.52,4.14-1.55a2.94,2.94,0,0,0,.1-2.88,11.31,11.31,0,0,0-1.69-2.68,5,5,0,0,1-1.39-3.75c0-2.93,3.65-4.51,7.08-4.52h.41c3.44,0,7.09,1.59,7.09,4.52A5,5,0,0,1,51,31.4a11.19,11.19,0,0,0-1.69,2.69,2.93,2.93,0,0,0,.08,2.84c.63,1,1.9,1.51,3.77,1.57H69.1Z"/>
      <g class="cls-7">
        <path class="cls-8" d="M53.58,15.2a47.39,47.39,0,0,1-6.94-5.12,1.57,1.57,0,0,0-1-.36,1.67,1.67,0,0,0-.31,0,1.54,1.54,0,0,0-.31,0,1.57,1.57,0,0,0-1,.36c-7.92,6.85-13.54,8.85-21.72,9a1.39,1.39,0,0,0-1.36,1.38V39.13c0,7.68,3.18,13.7,9.05,19.49A68.82,68.82,0,0,0,53.58,15.2Z"/>
      </g>
    </g>
  </g>
</svg>
