<svg xmlns="http://www.w3.org/2000/svg" width="90" height="90" viewBox="0 0 90 90">
  <defs>
    <style>
      .cls-1 {
        fill: #866249;
      }

      .cls-2 {
        fill: #a88865;
      }

      .cls-3 {
        fill: #bebdb9;
      }

      .cls-4 {
        fill: #e8e7e6;
      }

      .cls-5 {
        fill: #fff;
      }

      .cls-6 {
        fill: #f2f2f2;
      }

      .cls-7 {
        fill: #687081;
        fill-opacity: 0.33;
      }

      .cls-8 {
        fill: #bec4cd;
      }
    </style>
  </defs>
  <g id="Layer_1" data-name="Layer 1">
    <g>
      <g>
        <rect class="cls-1" y="14.55" width="90" height="70.25" rx="4.82"/>
        <rect class="cls-2" y="11.55" width="90" height="70.25" rx="4.82"/>
        <g>
          <path class="cls-3" d="M49.82,9.42H40.18L9.07,9.58a4.86,4.86,0,0,0-4.82,4.84V72.74a4.81,4.81,0,0,0,4.82,4.8l31.11-.16h9.64l31.11.16a4.81,4.81,0,0,0,4.82-4.8V14.42a4.86,4.86,0,0,0-4.82-4.84Z"/>
          <path class="cls-4" d="M49.82,6H40.18L9.07,6.15A4.87,4.87,0,0,0,4.25,11V68.65a4.81,4.81,0,0,0,4.82,4.8l31.11-.16c2.65,0,7,0,9.64,0l31.11.16a4.81,4.81,0,0,0,4.82-4.8V11a4.87,4.87,0,0,0-4.82-4.85Z"/>
          <path class="cls-4" d="M45,73.27l35.93.18a4.81,4.81,0,0,0,4.82-4.8V11a4.87,4.87,0,0,0-4.82-4.85L45,6"/>
          <path class="cls-5" d="M9.42,64.19a5.57,5.57,0,0,0,4.78,5.39L45,73.27V6L14.09.14A3.56,3.56,0,0,0,9.42,3.77Z"/>
          <path class="cls-6" d="M80.58,64.19a5.57,5.57,0,0,1-4.78,5.39L45,73.27V6L75.91.14a3.56,3.56,0,0,1,4.67,3.63Z"/>
        </g>
      </g>
      <path class="cls-7" d="M39.32,56.76a1.65,1.65,0,0,0-.22-.86,1.36,1.36,0,0,0-.61-.58.75.75,0,0,1-.28-.17,1.13,1.13,0,0,1-.19-.32,4.89,4.89,0,0,0-1-1.47,11,11,0,0,0-1-.86,1.28,1.28,0,0,1-.17-.22,3.14,3.14,0,0,1-.27-1,2.55,2.55,0,0,1,.1-1l.09-.19a.26.26,0,0,1,.12-.15.21.21,0,0,1,.19,0,1.36,1.36,0,0,0,.6,0,.59.59,0,0,0,.4-.26.89.89,0,0,0,.14-.54v-1a1.36,1.36,0,0,0,0-.4,1.84,1.84,0,0,0-.17-.38,1.2,1.2,0,0,0-.27-.28.72.72,0,0,0-.32-.15l-.28-.06s0-.23,0-.36a15.28,15.28,0,0,0-1.89-6.26,29.58,29.58,0,0,0-1.76-2.73A28.29,28.29,0,0,1,30,33.18a11.9,11.9,0,0,1-.92-3,2.67,2.67,0,0,0-.19-.88H29a5.3,5.3,0,0,0,2.33,2.27,7.94,7.94,0,0,0,2.7.79.47.47,0,0,1,.26.17A16.26,16.26,0,0,1,36,35.12l.11.08a2.32,2.32,0,0,0,1,0,1.16,1.16,0,0,0,.64-.23A2.59,2.59,0,0,0,39,33.23a1.57,1.57,0,0,0,0-.61,1.79,1.79,0,0,0-.21-.6c-.74-1.56-1.49-3.11-2.34-4.6L35.4,25.61a1.42,1.42,0,0,1-.15-.56c0-.44-.11-.93-.16-1.34a1.62,1.62,0,0,0-.19-.56,1.46,1.46,0,0,0-.36-.45c-.45-.46-.91-.89-1.37-1.31-.09-.07-.09-.11,0-.18.32-.6.63-1.2.94-1.8a.27.27,0,0,0,0-.18.4.4,0,0,0-.09-.17,7.11,7.11,0,0,0-1.67-1.17c-.09,0-.1-.1-.1-.2q0-.68,0-1.35c0-.13,0-.16-.13-.15a7.17,7.17,0,0,0-1.34.49c-.33.14-.67.31-1,.44a.4.4,0,0,1-.19,0,8.92,8.92,0,0,0-2.13,0,8.06,8.06,0,0,0-3.36,1.15A8.52,8.52,0,0,0,22.07,20a12.2,12.2,0,0,0-1.79,2.65,14.17,14.17,0,0,0-1,2.76,15.6,15.6,0,0,0-.4,2.1,17.35,17.35,0,0,0-.08,2.61A24.07,24.07,0,0,0,19,32.66a48.39,48.39,0,0,0,1.15,5.15c.27,1,.57,2.06.83,3.1a19.94,19.94,0,0,1,.49,2.63,1,1,0,0,1,0,.54h0c-.09-.13-.19,0-.27,0a.62.62,0,0,0-.55.22.94.94,0,0,0-.2.65v.91a1.37,1.37,0,0,0,.21.73,1,1,0,0,0,.54.43.67.67,0,0,0,.43.09l.13,0c0,.13.1.23.15.35a2.73,2.73,0,0,1,.15.89,2.23,2.23,0,0,1-.15.83.89.89,0,0,1-.56.6,4.19,4.19,0,0,0-1.29.85,2,2,0,0,0-.52.73.23.23,0,0,1-.26.14.84.84,0,0,0-.67.14.72.72,0,0,0-.23.31,1,1,0,0,0-.09.43v2.17c0,.12,0,.18.13.19l.4.08,20.39,4h.06l.05,0,0-.06a.22.22,0,0,0,0-.08C39.31,58,39.32,57.38,39.32,56.76Z"/>
      <path class="cls-8" d="M62.15,26.77,53.9,28.14V17.27l8.25-1.37Z"/>
      <path class="cls-8" d="M62.15,41.88,53.9,43.26V32.39L62.15,31Z"/>
      <path class="cls-8" d="M62.15,57,53.9,58.37V47.5l8.25-1.38Z"/>
      <path class="cls-8" d="M73.2,55.15,65,56.52V45.66l8.24-1.38Z"/>
    </g>
  </g>
</svg>
