<svg xmlns="http://www.w3.org/2000/svg" xmlns:xlink="http://www.w3.org/1999/xlink" width="90" height="90" viewBox="0 0 90 90">
  <defs>
    <style>
      .cls-1 {
        fill: #ef5a2a;
      }

      .cls-2 {
        fill: url(#linear-gradient);
      }

      .cls-3 {
        fill: #fff;
        opacity: 0.15;
      }
    </style>
    <linearGradient id="linear-gradient" x1="5" y1="40.42" x2="85" y2="40.42" gradientUnits="userSpaceOnUse">
      <stop offset="0" stop-color="#f69967"/>
      <stop offset="1" stop-color="#fd8545"/>
    </linearGradient>
  </defs>
  <g id="Layer_1" data-name="Layer 1">
    <g>
      <path class="cls-1" d="M77.4,13.64c-6.77,2.64-12.66,12.71-10,17.17,1,1.59,7.64,1.38,7.9,1.38a10.88,10.88,0,0,0,6.84-2.32A7.25,7.25,0,0,0,85,24.26V15.1S79.67,12.75,77.4,13.64Z"/>
      <path class="cls-1" d="M37.21,19c-1.14.1-7.9,1.11-7.9,1.11v9.16a3.35,3.35,0,0,0,1.33,2.57,4.63,4.63,0,0,0,2.09.93,12.28,12.28,0,0,1,1.6-.1A12.07,12.07,0,0,1,42,35.28l.41.34a8,8,0,0,1,2.85,6l7.54-13.16C54.27,26.1,52.68,17.5,37.21,19Z"/>
      <path class="cls-1" d="M79.6,39.84s-34.67,19.5-36,18.37L14.45,37.37C7.38,36.3,5,41,5,41v9.17a5.29,5.29,0,0,0,2.07,4.09L39.9,81.13a8.24,8.24,0,0,0,10,0l33-27A5.29,5.29,0,0,0,84.93,50V40.87S81,38.71,79.6,39.84Z"/>
      <path class="cls-2" d="M75.33,7.18A10.8,10.8,0,0,1,82.17,9.5a7,7,0,0,1,0,11.2A10.82,10.82,0,0,1,75.33,23c-.26,0-.53,0-.79,0h-.3a3.81,3.81,0,0,0-2.4.82,2.44,2.44,0,0,0,0,3.94l11,9a5.09,5.09,0,0,1,0,8.19l-33,27a8.2,8.2,0,0,1-10,0L7.07,45.06a5.08,5.08,0,0,1,0-8.18l8.51-7a5,5,0,0,1,6,0l1,.83a3.4,3.4,0,0,1,1,1.31,8,8,0,0,0,3.23,6.52,12.45,12.45,0,0,0,15.41,0,7.71,7.71,0,0,0,.16-12.1L42,26.11a12.07,12.07,0,0,0-7.66-2.63,14.32,14.32,0,0,0-1.6.1,4.52,4.52,0,0,1-2.09-.93,3.09,3.09,0,0,1-.09-5L40,9.88a8.2,8.2,0,0,1,10,0L59.89,18a4,4,0,0,0,4.82,0,2.49,2.49,0,0,0,1-2.21,7.15,7.15,0,0,1,2.8-6.25A10.82,10.82,0,0,1,75.33,7.18Z"/>
      <path class="cls-3" d="M59.44,25.43c0-1.57-.09-3.12-.24-4.65a6.14,6.14,0,0,1-1.05-.69L48.28,12a5.47,5.47,0,0,0-6.5,0L32.3,19.78c-.16.12-.23.24-.23.31s.06.23.31.43a1.76,1.76,0,0,0,.53.27c.47,0,1-.06,1.42-.06A14.79,14.79,0,0,1,43.71,24l.51.42A10.46,10.46,0,0,1,44,40.67,14.69,14.69,0,0,1,34.53,44a14.91,14.91,0,0,1-9.43-3.28,10.9,10.9,0,0,1-4.24-7.86l-1-.81a2,2,0,0,0-1.27-.4,2,2,0,0,0-1.26.39L8.82,39a2.34,2.34,0,0,0,0,3.92L35.8,65A45,45,0,0,0,59.44,25.43Z"/>
    </g>
  </g>
</svg>
