<svg width="90" height="90" fill="none" xmlns="http://www.w3.org/2000/svg"><path fill-rule="evenodd" clip-rule="evenodd" d="M10.543 57.276c-.386.249-.784.478-1.168.73v18.987a3.608 3.608 0 0 0 3.61 3.608h15.168V49.98c-5.788 2.746-11.659 5.213-17.61 7.295Zm24.803-10.83V80.6H54.14V36.557c-6.197 3.296-12.458 6.68-18.795 9.889Zm39.46-23.327c-.71.437-1.38.932-2.049 1.427-.36.288-.721.577-1.083.862a13.525 13.525 0 0 1-5.967 3.476 67.89 67.89 0 0 1-.243.034c-.958 1.43-2.314 2.726-4.112 3.797v47.888H76.52a3.606 3.606 0 0 0 3.607-3.612V17.338a14.43 14.43 0 0 1-5.321 5.78Z" fill="#666564"/><path fill-rule="evenodd" clip-rule="evenodd" d="M12.46 52.763a8.057 8.057 0 0 1-3.085.727v13.046h.019a7.908 7.908 0 0 0 3.352-.746l15.407-7.2V45.446l-15.694 7.32v-.003ZM54.14 33.52 35.348 42.57v12.66l18.794-8.78V33.521Zm22.353-15.829-2.777 6.694a9.765 9.765 0 0 1-9.04 6.034 9.733 9.733 0 0 1-3.324-.604v20.719a9.606 9.606 0 0 0 6.118 2.205 9.562 9.562 0 0 0 8.861-5.914l3.797-9.152V17.692h-3.637.002Z" fill="#4B4847"/><path fill-rule="evenodd" clip-rule="evenodd" d="m78.686 14.992-28.451-3.727a1.67 1.67 0 0 0-1.661 2.488l4.762 8.25-41.86 19.566a3.609 3.609 0 0 0-2.084 3.27v13.773l51.255-23.949 5.381 9.323a1.669 1.669 0 0 0 2.987-.195l10.997-26.504a1.668 1.668 0 0 0-1.326-2.295Z" fill="#0097C7"/><path fill-rule="evenodd" clip-rule="evenodd" d="M13.301 48.748c0-1.402.812-2.68 2.083-3.27L54.77 25.92a4.683 4.683 0 0 0 2.703-4.187v-.077c.07-4.037 1.334-5.047 5.363-4.822l16.575.92.602-.467a1.67 1.67 0 0 0-1.326-2.295l-28.451-3.727a1.67 1.67 0 0 0-1.661 2.488l4.762 8.248-41.86 19.568a3.607 3.607 0 0 0-2.08 3.27v13.773l3.905-1.826v-8.038Z" fill="#33ACD2"/></svg>