<svg xmlns="http://www.w3.org/2000/svg" xmlns:xlink="http://www.w3.org/1999/xlink" width="90" height="90" viewBox="0 0 90 90">
  <defs>
    <style>
      .cls-1 {
        fill: #f42b00;
      }

      .cls-2 {
        fill: url(#linear-gradient);
      }

      .cls-3 {
        fill: url(#linear-gradient-2);
      }
    </style>
    <linearGradient id="linear-gradient" x1="14.08" y1="80.41" x2="65.04" y2="29.45" gradientUnits="userSpaceOnUse">
      <stop offset="0" stop-color="#f42b00"/>
      <stop offset="1" stop-color="#f79204"/>
    </linearGradient>
    <linearGradient id="linear-gradient-2" x1="37.87" y1="56.62" x2="87.88" y2="6.62" gradientUnits="userSpaceOnUse">
      <stop offset="0" stop-color="#f42b00"/>
      <stop offset="0.01" stop-color="#f42e00"/>
      <stop offset="0.11" stop-color="#f54d01"/>
      <stop offset="0.23" stop-color="#f66602"/>
      <stop offset="0.35" stop-color="#f67a03"/>
      <stop offset="0.49" stop-color="#f78804"/>
      <stop offset="0.67" stop-color="#f79004"/>
      <stop offset="1" stop-color="#f79204"/>
    </linearGradient>
  </defs>
  <g id="Layer_1" data-name="Layer 1">
    <g>
      <path class="cls-1" d="M81.78,45.13l-8.29-8.29c-1.31-1.31-2.62-3.12-1.43-4.31a3,3,0,0,1,.94-.6,13.57,13.57,0,0,1,3.61-.8,8.52,8.52,0,0,0,6-2.79c3.69-3.68,1.53-9.82-2.38-13.73l-.34-.34c-3.91-3.91-10-6.07-13.73-2.38a8.52,8.52,0,0,0-2.79,6,13.57,13.57,0,0,1-.8,3.61,2.87,2.87,0,0,1-.6,1c-1.17,1.16-3-.21-4-1.12L48.61,12,46.45,9.79a1.46,1.46,0,0,0-2.05,0L33.69,20.5a4,4,0,0,0-1.38,3.38,3.32,3.32,0,0,0,2,2.25,9.46,9.46,0,0,0,4.55.65c1.94-.06,3.77-.12,5.8,1.9,3.18,3.19.6,9.52-2.38,12.66a15.65,15.65,0,0,1-5.88,3.4c-2.55.8-5.17.78-6.88-.92-2-2-2-3.86-1.9-5.8A9.51,9.51,0,0,0,27,33.46a3.32,3.32,0,0,0-2.33-2.05c-1.08-.17-2.28.39-3.57,1.68l-1.44,1.45a19.18,19.18,0,0,0-4.05,6.05A27.12,27.12,0,0,0,14.18,56.5l.16.63.52-.39c.81-.61,3.18-2.08,4.43-1.52.53.23.83.84.92,1.81a3,3,0,0,1-.76,2.6c-1.39,1.4-4.19,1.18-4.22,1.18l-.58-.05.12.57c1.8,8.81-.93,13.78-3.55,16.39a10.06,10.06,0,0,1-2.59,1.94l-1.06.49,1.11.33C17.47,83.08,23,80,26,76.91a17.7,17.7,0,0,0,3.13-4.27c1.32,3.41-1.55,7-3.47,9-.79.78-1.4,1.26-1.41,1.27l-.71.56.88.21c.35.08,8.71,2,12.68-2a7.48,7.48,0,0,0,2-5.63,3.47,3.47,0,0,1,.66-2.46A1.58,1.58,0,0,1,41,73.18a4.3,4.3,0,0,1,3.68,3.4A3.87,3.87,0,0,1,43.36,80a3.65,3.65,0,0,1-.33.31l-.87.68,1.1.1A23.6,23.6,0,0,0,54.6,78.66,20.38,20.38,0,0,0,60,74.84l1.45-1.45c1.29-1.29,1.86-2.49,1.68-3.57A3.32,3.32,0,0,0,61,67.49a9.44,9.44,0,0,0-4.55-.65c-1.94.06-3.77.12-5.8-1.9-1.76-1.76-1.71-4.5-.83-7.13a15.53,15.53,0,0,1,3.29-5.62c3.16-3,9.49-5.57,12.68-2.39,2,2,2,3.86,1.9,5.8a9.58,9.58,0,0,0,.65,4.55,3.32,3.32,0,0,0,2.25,2c1,.2,2.18-.27,3.39-1.39L84.38,50.41a1.91,1.91,0,0,0,0-2.69Z"/>
      <g>
        <path class="cls-2" d="M81.78,45.13l-8.29-8.29c-1.31-1.31-2.62-3.12-1.43-4.31a3,3,0,0,1,.94-.6,13.57,13.57,0,0,1,3.61-.8,8.52,8.52,0,0,0,6-2.79c3.69-3.68,1.53-9.82-2.38-13.73l-.34-.34c-3.91-3.91-10-6.07-13.73-2.38a8.52,8.52,0,0,0-2.79,6,13.57,13.57,0,0,1-.8,3.61,2.87,2.87,0,0,1-.6,1c-1.17,1.16-3-.21-4-1.12L48.61,12,46.45,9.79a1.46,1.46,0,0,0-2.05,0L33.69,20.5a4,4,0,0,0-1.38,3.38,3.32,3.32,0,0,0,2,2.25,9.46,9.46,0,0,0,4.55.65c1.94-.06,3.77-.12,5.8,1.9,3.18,3.19.6,9.52-2.38,12.66a15.65,15.65,0,0,1-5.88,3.4c-2.55.8-5.17.78-6.88-.92-2-2-2-3.86-1.9-5.8A9.51,9.51,0,0,0,27,33.46a3.32,3.32,0,0,0-2.33-2.05c-1.08-.17-2.28.39-3.57,1.68l-1.44,1.45a19.18,19.18,0,0,0-4.05,6.05A27.12,27.12,0,0,0,14.18,56.5l.16.63.52-.39c.81-.61,3.18-2.08,4.43-1.52.53.23.83.84.92,1.81a3,3,0,0,1-.76,2.6c-1.39,1.4-4.19,1.18-4.22,1.18l-.58-.05.12.57c1.8,8.81-.93,13.78-3.55,16.39a10.06,10.06,0,0,1-2.59,1.94l-1.06.49,1.11.33C17.47,83.08,23,80,26,76.91a17.7,17.7,0,0,0,3.13-4.27c1.32,3.41-1.55,7-3.47,9-.79.78-1.4,1.26-1.41,1.27l-.71.56.88.21c.35.08,8.71,2,12.68-2a7.48,7.48,0,0,0,2-5.63,3.47,3.47,0,0,1,.66-2.46A1.58,1.58,0,0,1,41,73.18a4.3,4.3,0,0,1,3.68,3.4A3.87,3.87,0,0,1,43.36,80a3.65,3.65,0,0,1-.33.31l-.87.68,1.1.1A23.6,23.6,0,0,0,54.6,78.66,20.38,20.38,0,0,0,60,74.84l1.45-1.45c1.29-1.29,1.86-2.49,1.68-3.57A3.32,3.32,0,0,0,61,67.49a9.44,9.44,0,0,0-4.55-.65c-1.94.06-3.77.12-5.8-1.9-1.76-1.76-1.71-4.5-.83-7.13a15.53,15.53,0,0,1,3.29-5.62c3.16-3,9.49-5.57,12.68-2.39,2,2,2,3.86,1.9,5.8a9.58,9.58,0,0,0,.65,4.55,3.32,3.32,0,0,0,2.25,2c1,.2,2.18-.27,3.39-1.39L84.38,50.41a1.91,1.91,0,0,0,0-2.69Z"/>
        <path class="cls-3" d="M45.42,11,56.55,22.1l.37.37a6,6,0,0,0,3.95,2,3.13,3.13,0,0,0,2.2-.91,4.27,4.27,0,0,0,.94-1.5,14.64,14.64,0,0,0,.9-4A7,7,0,0,1,67.25,13a5,5,0,0,1,3.67-1.44,7.4,7.4,0,0,1,1.65.19,13.08,13.08,0,0,1,6.2,3.64l.34.34a13.08,13.08,0,0,1,3.64,6.2,5.55,5.55,0,0,1-1.25,5.32,7,7,0,0,1-5.07,2.34,14.59,14.59,0,0,0-4,.91,4.23,4.23,0,0,0-1.45.94,3.12,3.12,0,0,0-.82,3,7.85,7.85,0,0,0,2.25,3.46L83.51,49.07,73.24,59.34l-.31.31a3.15,3.15,0,0,1-1.84,1H70.9c-.52-.11-.91-.7-1.12-1.15a8.15,8.15,0,0,1-.51-3.85c.07-2.08.15-4.45-2.36-6.95a6.88,6.88,0,0,0-5-1.94c-3.66,0-7.57,2.15-9.9,4.36-3.4,3.6-6.53,10.82-2.43,14.92a7.68,7.68,0,0,0,5.9,2.39l1.05,0,1,0a6.78,6.78,0,0,1,2.83.51c.71.36,1.14.78,1.21,1.18s-.37,1.34-1.24,2.21l-1.45,1.45a20.49,20.49,0,0,1-13.18,5.79,4.6,4.6,0,0,0,.52-3.21A5.81,5.81,0,0,0,41,71.61a3.18,3.18,0,0,0-2.32.88,4.9,4.9,0,0,0-1.11,3.59A5.88,5.88,0,0,1,36,80.58c-1.68,1.68-4.53,2-6.62,2A21.39,21.39,0,0,1,27,82.48c2.14-2.2,4.47-5.47,4-9L30.21,68l-2.9,4.8a15.66,15.66,0,0,1-2.38,3,13.6,13.6,0,0,1-10,4.09,18.65,18.65,0,0,1-3.42-.33c.26-.22.53-.46.8-.73C15.07,76.08,18,71,16.54,62.35a6.52,6.52,0,0,0,4-1.61,4.54,4.54,0,0,0,1.21-3.85,3.37,3.37,0,0,0-1.84-3.09,3,3,0,0,0-1.29-.27,7.36,7.36,0,0,0-3.27,1C14.8,51,14.19,42.21,20.76,35.64l1.45-1.45a3.6,3.6,0,0,1,2.07-1.25h.14c.4.07.83.51,1.16,1.17A8.15,8.15,0,0,1,26.09,38c-.07,2.09-.15,4.45,2.36,7a6.86,6.86,0,0,0,5,1.92c3.68,0,7.64-2.18,10-4.43,3.5-3.7,6.26-10.92,2.34-14.83a7.66,7.66,0,0,0-5.9-2.38l-1,0-1,0A6.63,6.63,0,0,1,35,24.72c-.48-.23-1.06-.61-1.16-1.13-.14-.69.58-1.58,1-2l.34-.34L45.42,11M33.74,19.84l-.34.34c-1.24,1.33-1.74,2.6-1.52,3.78a3.62,3.62,0,0,0,2.27,2.56,8.49,8.49,0,0,0,3.71.72l1,0,1,0A5.65,5.65,0,0,1,44.38,29c3,3,.49,9-2.38,12.05-2.1,2-5.61,3.8-8.56,3.8a4.91,4.91,0,0,1-3.58-1.33C28,41.62,28,40,28.09,38a10.07,10.07,0,0,0-.69-4.74A3.7,3.7,0,0,0,24.74,31a2.32,2.32,0,0,0-.46,0,5.23,5.23,0,0,0-3.49,1.84l-1.44,1.45c-9,9-5.74,21.84-5.6,22.39l.34,1.25,1-.78a7.36,7.36,0,0,1,3.51-1.56,1.21,1.21,0,0,1,.48.09c.36.17.58.65.65,1.44a2.59,2.59,0,0,1-.63,2.26,5.23,5.23,0,0,1-3.48,1.06h-.39l-1.17-.1.24,1.15c1.76,8.62-.89,13.46-3.42,16a9.8,9.8,0,0,1-2.48,1.86l-2.1,1,2.22.66a22.35,22.35,0,0,0,6.39,1,15.72,15.72,0,0,0,11.4-4.67A18.62,18.62,0,0,0,29,73.8c.41,2.89-2,5.83-3.63,7.49A15.83,15.83,0,0,1,24,82.52L22.6,83.64l1.76.42a23.43,23.43,0,0,0,5.05.55c2.73,0,5.95-.52,8-2.61a7.88,7.88,0,0,0,2.12-6,3.14,3.14,0,0,1,.53-2.14,1.13,1.13,0,0,1,.9-.3,3.89,3.89,0,0,1,3.22,3v0a3.49,3.49,0,0,1-1.17,3l-.3.27L41,81.33l2.18.2c.07,0,.48,0,1.13,0a22.84,22.84,0,0,0,15.91-6.42l1.45-1.45c1.4-1.4,2-2.73,1.8-4a3.69,3.69,0,0,0-2.28-2.65,8.77,8.77,0,0,0-3.73-.72l-1,0-1,0A5.67,5.67,0,0,1,51,64.63c-3-3-.44-9.06,2.47-12.13,2.07-2,5.52-3.74,8.45-3.74a5,5,0,0,1,3.6,1.35c1.89,1.89,1.84,3.55,1.77,5.48A10.07,10.07,0,0,0,68,60.33a3.66,3.66,0,0,0,2.57,2.28,3.43,3.43,0,0,0,.56,0,4.89,4.89,0,0,0,3.2-1.54l.36-.37L85,50.41a1.91,1.91,0,0,0,0-2.69L73.8,36.53A5.88,5.88,0,0,1,72.09,34a1.11,1.11,0,0,1,.28-1.16,2.57,2.57,0,0,1,.81-.51,13,13,0,0,1,3.48-.76,8.89,8.89,0,0,0,6.25-2.92,7.43,7.43,0,0,0,1.79-7.17,15.15,15.15,0,0,0-4.17-7.18L80.19,14A15.15,15.15,0,0,0,73,9.79a9.65,9.65,0,0,0-2.09-.24,7,7,0,0,0-5.08,2,8.89,8.89,0,0,0-2.92,6.25,12.94,12.94,0,0,1-.77,3.5,2.39,2.39,0,0,1-.5.82,1.07,1.07,0,0,1-.78.32A4.76,4.76,0,0,1,58.28,21L58,20.69,46.45,9.17a1.46,1.46,0,0,0-2.05,0Z"/>
      </g>
    </g>
  </g>
</svg>
